# xmcd CD database file
#
# Track frame offsets:
#	150
#	40442
#	130313
#	170338
#	200519
#	217796
#	231968
#	239044
#
# Disc length: 3475 seconds
#
# Revision: 0
# Processed by: cddbd v1.5PL3 Copyright (c) Steve Scherf et al.
# Submitted via: CDex 1.51
#
DISCID=720d9108
DTITLE=Phish - First Star Center 12-4-99 - Disc 2
DYEAR=1999
DGENRE=Blues
TTITLE0=Down with Disease
TTITLE1=Split Open and Melt
TTITLE2=Mama dance
TTITLE3=Farmhouse
TTITLE4=TMWSIY
TTITLE5=Avena Malkena
TTITLE6=TMWSIY
TTITLE7=When the Circus Come to Town
EXTD=YEAR: 1999
EXTT0=
EXTT1=
EXTT2=
EXTT3=
EXTT4=
EXTT5=
EXTT6=
EXTT7=
PLAYORDER=
